# xmcd
#
# Track frame offsets: 
#        150
#        3169
#        33264
#        47766
#        52802
#        59645
#        84363
#        102892
#        121401
#        129830
#        162989
#        180763
#
# Disc length: 2684 seconds
#
# Revision: 1
# Processed by: cddbd v1.5.2PL0 Copyright (c) Steve Scherf et al.
# Submitted via: ExactAudioCopy v1.0b3
#
DISCID=860a7a0c
DTITLE=Levity - Chopin Shuffle CD1
DYEAR=2010
DGENRE=Jazz
TTITLE0=The Funniest Joke In The World
TTITLE1=Canis Major
TTITLE2=Fashion Victims
TTITLE3=Ticking Love
TTITLE4=Kolberger
TTITLE5=Grave
TTITLE6=Riff'49
TTITLE7=Sans Voix
TTITLE8=Cieplo
TTITLE9=Tempus Fungus
TTITLE10=Elephant Vs Lion
TTITLE11=16 Tons
EXTD=YEAR: 2010
EXTT0=
EXTT1=
EXTT2=
EXTT3=
EXTT4=
EXTT5=
EXTT6=
EXTT7=
EXTT8=
EXTT9=
EXTT10=
EXTT11=
PLAYORDER=
